TITLE ""
FILE "P1Q_t_0688-0697.mp3" MP3
  TRACK 01 AUDIO
    TITLE "P1Q_t_0688-0697_01"
    INDEX 01 00:00:00
  TRACK 02 AUDIO
    TITLE "P1Q_t_0688-0697_02"
    INDEX 01 00:00:10
  TRACK 03 AUDIO
    TITLE "P1Q_t_0688-0697_03"
    INDEX 01 00:01:47
  TRACK 04 AUDIO
    TITLE "P1Q_t_0688-0697_04"
    INDEX 01 00:01:69
  TRACK 05 AUDIO
    TITLE "P1Q_t_0688-0697_05"
    INDEX 01 00:04:53
  TRACK 06 AUDIO
    TITLE "P1Q_t_0688-0697_06"
    INDEX 01 00:04:71
  TRACK 07 AUDIO
    TITLE "P1Q_t_0688-0697_07"
    INDEX 01 00:09:62
  TRACK 08 AUDIO
    TITLE "P1Q_t_0688-0697_08"
    INDEX 01 00:10:34
  TRACK 09 AUDIO
    TITLE "P1Q_t_0688-0697_09"
    INDEX 01 00:11:55
  TRACK 10 AUDIO
    TITLE "P1Q_t_0688-0697_10"
    INDEX 01 00:12:02
  TRACK 11 AUDIO
    TITLE "P1Q_t_0688-0697_11"
    INDEX 01 00:14:65
  TRACK 12 AUDIO
    TITLE "P1Q_t_0688-0697_12"
    INDEX 01 00:15:10
  TRACK 13 AUDIO
    TITLE "P1Q_t_0688-0697_13"
    INDEX 01 00:20:56
  TRACK 14 AUDIO
    TITLE "P1Q_t_0688-0697_14"
    INDEX 01 00:21:30
  TRACK 15 AUDIO
    TITLE "P1Q_t_0688-0697_15"
    INDEX 01 00:22:37
  TRACK 16 AUDIO
    TITLE "P1Q_t_0688-0697_16"
    INDEX 01 00:22:61
  TRACK 17 AUDIO
    TITLE "P1Q_t_0688-0697_17"
    INDEX 01 00:25:12
  TRACK 18 AUDIO
    TITLE "P1Q_t_0688-0697_18"
    INDEX 01 00:25:32
  TRACK 19 AUDIO
    TITLE "P1Q_t_0688-0697_19"
    INDEX 01 00:31:19
  TRACK 20 AUDIO
    TITLE "P1Q_t_0688-0697_20"
    INDEX 01 00:31:66
  TRACK 21 AUDIO
    TITLE "P1Q_t_0688-0697_21"
    INDEX 01 00:33:25
  TRACK 22 AUDIO
    TITLE "P1Q_t_0688-0697_22"
    INDEX 01 00:33:49
  TRACK 23 AUDIO
    TITLE "P1Q_t_0688-0697_23"
    INDEX 01 00:35:73
  TRACK 24 AUDIO
    TITLE "P1Q_t_0688-0697_24"
    INDEX 01 00:36:18
  TRACK 25 AUDIO
    TITLE "P1Q_t_0688-0697_25"
    INDEX 01 00:41:37
  TRACK 26 AUDIO
    TITLE "P1Q_t_0688-0697_26"
    INDEX 01 00:42:09
  TRACK 27 AUDIO
    TITLE "P1Q_t_0688-0697_27"
    INDEX 01 00:43:28
  TRACK 28 AUDIO
    TITLE "P1Q_t_0688-0697_28"
    INDEX 01 00:43:51
  TRACK 29 AUDIO
    TITLE "P1Q_t_0688-0697_29"
    INDEX 01 00:46:08
  TRACK 30 AUDIO
    TITLE "P1Q_t_0688-0697_30"
    INDEX 01 00:46:28
  TRACK 31 AUDIO
    TITLE "P1Q_t_0688-0697_31"
    INDEX 01 00:52:01
  TRACK 32 AUDIO
    TITLE "P1Q_t_0688-0697_32"
    INDEX 01 00:52:46
  TRACK 33 AUDIO
    TITLE "P1Q_t_0688-0697_33"
    INDEX 01 00:53:50
  TRACK 34 AUDIO
    TITLE "P1Q_t_0688-0697_34"
    INDEX 01 00:53:71
  TRACK 35 AUDIO
    TITLE "P1Q_t_0688-0697_35"
    INDEX 01 00:56:26
  TRACK 36 AUDIO
    TITLE "P1Q_t_0688-0697_36"
    INDEX 01 00:56:46
  TRACK 37 AUDIO
    TITLE "P1Q_t_0688-0697_37"
    INDEX 01 01:00:75
  TRACK 38 AUDIO
    TITLE "P1Q_t_0688-0697_38"
    INDEX 01 01:01:47
  TRACK 39 AUDIO
    TITLE "P1Q_t_0688-0697_39"
    INDEX 01 01:02:51
  TRACK 40 AUDIO
    TITLE "P1Q_t_0688-0697_40"
    INDEX 01 01:02:74
  TRACK 41 AUDIO
    TITLE "P1Q_t_0688-0697_41"
    INDEX 01 01:06:11
  TRACK 42 AUDIO
    TITLE "P1Q_t_0688-0697_42"
    INDEX 01 01:06:31
  TRACK 43 AUDIO
    TITLE "P1Q_t_0688-0697_43"
    INDEX 01 01:10:23
  TRACK 44 AUDIO
    TITLE "P1Q_t_0688-0697_44"
    INDEX 01 01:10:70
  TRACK 45 AUDIO
    TITLE "P1Q_t_0688-0697_45"
    INDEX 01 01:12:08
  TRACK 46 AUDIO
    TITLE "P1Q_t_0688-0697_46"
    INDEX 01 01:12:29
  TRACK 47 AUDIO
    TITLE "P1Q_t_0688-0697_47"
    INDEX 01 01:15:04
  TRACK 48 AUDIO
    TITLE "P1Q_t_0688-0697_48"
    INDEX 01 01:15:24
  TRACK 49 AUDIO
    TITLE "P1Q_t_0688-0697_49"
    INDEX 01 01:21:07
  TRACK 50 AUDIO
    TITLE "P1Q_t_0688-0697_50"
    INDEX 01 01:21:52
  TRACK 51 AUDIO
    TITLE "P1Q_t_0688-0697_51"
    INDEX 01 01:22:61
  TRACK 52 AUDIO
    TITLE "P1Q_t_0688-0697_52"
    INDEX 01 01:23:08
  TRACK 53 AUDIO
    TITLE "P1Q_t_0688-0697_53"
    INDEX 01 01:24:38
  TRACK 54 AUDIO
    TITLE "P1Q_t_0688-0697_54"
    INDEX 01 01:24:58
  TRACK 55 AUDIO
    TITLE "P1Q_t_0688-0697_55"
    INDEX 01 01:28:42
  TRACK 56 AUDIO
    TITLE "P1Q_t_0688-0697_56"
    INDEX 01 01:29:12
  TRACK 57 AUDIO
    TITLE "P1Q_t_0688-0697_57"
    INDEX 01 01:30:47
  TRACK 58 AUDIO
    TITLE "P1Q_t_0688-0697_58"
    INDEX 01 01:30:70
  TRACK 59 AUDIO
    TITLE "P1Q_t_0688-0697_59"
    INDEX 01 01:33:12
  TRACK 60 AUDIO
    TITLE "P1Q_t_0688-0697_60"
    INDEX 01 01:33:33
  TRACK 61 AUDIO
    TITLE "P1Q_t_0688-0697_61"
    INDEX 01 01:38:54
